<svg xmlns:xlink="http://www.w3.org/1999/xlink" xmlns="http://www.w3.org/2000/svg" width="80" height="80" viewBox="0 0 80 80" fill="none"><rect x="20" y="23" width="57" height="57" rx="28.5" fill="#E1F8FA"></rect><path d="M43.5447 64.1203C43.0291 58.0334 41.4589 53.3149 38.8791 50.096C38.5306 49.6634 38.0889 49.315 37.5869 49.0769C37.0849 48.8388 36.5357 48.7172 35.9802 48.721C35.6829 48.7212 35.3867 48.7562 35.0977 48.8254C35.1017 48.8304 35.1061 48.8353 35.1103 48.841C37.6902 52.0598 39.2598 56.7785 39.7758 62.8653C40.0115 65.5774 40.0142 68.3047 39.7837 71.0173C39.7816 71.0381 39.7786 71.0589 39.7745 71.0798C39.7342 71.2774 39.7481 71.4821 39.8147 71.6725C39.8812 71.8628 39.9981 72.0316 40.1527 72.1609C40.3074 72.2902 40.4942 72.3753 40.6933 72.4071C40.8924 72.439 41.0964 72.4163 41.2837 72.3417C41.4521 72.2963 41.6109 72.221 41.7525 72.1193C42.5305 71.2988 43.1889 70.3727 43.7083 69.3684C43.745 67.6174 43.6904 65.8656 43.5447 64.1203Z" fill="#E1F8FA"></path><path d="M24.5592 71.0168C24.5577 71.0024 24.553 70.9558 24.546 70.8808C22.0711 66.4277 21.5133 59.8933 21.913 54.6636C21.9475 54.2127 21.9828 53.7936 22.0158 53.4024C22.2272 50.8868 22.355 49.369 21.5041 47.9946C20.6853 46.6718 19.0164 45.6316 15.8122 43.9354C14.0466 43.0004 12.6971 41.124 12.0144 38.6522C11.3439 36.1356 11.4014 33.4803 12.1802 30.9951C12.9593 28.5576 14.3919 26.5957 16.3236 25.3207C18.5791 23.8316 21.4308 23.303 24.7978 23.7501C24.9166 23.7657 25.0369 23.7854 25.158 23.8066C23.753 23.1732 22.3199 22.6649 21.0289 22.4941C17.6614 22.0476 14.8102 22.5762 12.5543 24.0652C10.6227 25.3402 9.18988 27.3024 8.41082 29.7396C7.63207 32.2249 7.57458 34.8801 8.24504 37.3968C8.92785 39.8685 10.2763 41.7447 12.0428 42.6799C15.2475 44.3751 16.9164 45.4155 17.7353 46.7382C18.5861 48.1132 18.4585 49.6308 18.2469 52.1461C18.2139 52.5368 18.1786 52.9565 18.1442 53.4074C17.6607 59.7321 18.5749 67.9688 22.5911 72.1186C22.7326 72.2197 22.8911 72.2946 23.0589 72.3399C23.2462 72.4147 23.4503 72.4373 23.6494 72.4056C23.8485 72.3738 24.0354 72.2887 24.1901 72.1594C24.3448 72.0301 24.4617 71.8613 24.5282 71.6709C24.5948 71.4806 24.6087 71.2758 24.5683 71.0782C24.5644 71.0579 24.5614 71.0374 24.5592 71.0168Z" fill="#E1F8FA"></path><path d="M16.4718 53.7641C16.2247 56.9954 15.8468 67.9813 21.3665 73.6836C21.7915 74.1185 22.3445 74.4061 22.9446 74.5042C23.5448 74.6024 24.1606 74.506 24.702 74.2291C25.2434 73.9522 25.6821 73.5094 25.9538 72.9654C26.2256 72.4214 26.3162 71.8047 26.2124 71.2055C26.141 70.4611 24.9704 57.235 30.5957 50.3877C30.788 50.1605 31.0278 49.9781 31.2982 49.8536C31.5686 49.729 31.863 49.6652 32.1607 49.6667C32.4584 49.6682 32.7521 49.7349 33.0212 49.8622C33.2903 49.9895 33.5283 50.1742 33.7183 50.4033C39.2322 57.2832 38.0807 70.46 38.0099 71.2063C37.937 71.6104 37.9544 72.0256 38.0608 72.4222C38.1672 72.8188 38.3601 73.1869 38.6255 73.5002C38.8909 73.8135 39.2224 74.0642 39.5961 74.2343C39.9698 74.4044 40.3765 74.4898 40.7871 74.4843C41.1069 74.4842 41.4245 74.431 41.7269 74.3269C42.1483 74.2037 42.5349 73.9838 42.8562 73.6846C48.3751 67.9815 47.9977 56.9961 47.7507 53.7649C47.7162 53.3138 47.681 52.8944 47.648 52.5029C47.4465 50.104 47.3797 49.0074 47.9105 48.15C48.5158 47.1721 50.0754 46.2243 52.9288 44.7097C55.2271 43.4897 56.9005 41.0066 57.6408 37.7161C58.3351 34.5875 58.0948 31.3238 56.9496 28.3307C55.8432 25.5371 53.9797 23.415 51.5607 22.1944C48.7662 20.7844 45.3715 20.6085 41.4713 21.6715C38.7451 22.4146 37.3166 23.3004 35.8044 24.238C34.6402 24.9952 33.4124 25.6498 32.1349 26.1946C32.0997 26.2091 32.0652 26.2258 32.0315 26.2415C31.6763 26.0469 31.2471 25.7991 30.774 25.5258C28.2658 24.0775 24.4755 21.8886 21.2471 21.4605C14.2133 20.5277 8.836 23.6561 6.86287 29.828C4.9735 35.7393 6.96147 42.4149 11.2946 44.709C14.1471 46.2191 15.7065 47.165 16.3127 48.1446C16.844 49.0019 16.7766 50.0977 16.5751 52.4958C16.5419 52.8894 16.5065 53.3107 16.4718 53.7641ZM12.1718 43.0522C8.6635 41.1949 7.05021 35.4005 8.64881 30.3994C9.45303 27.8846 12.2655 22.1602 20.9999 23.3191C23.8593 23.6983 27.4558 25.7752 29.8357 27.1494C30.5554 27.565 31.1769 27.924 31.6393 28.154C33.8705 29.2633 37.2207 30.664 40.5369 30.0166C40.6587 29.994 40.7748 29.9475 40.8784 29.8798C40.9821 29.812 41.0714 29.7244 41.141 29.622C41.2106 29.5196 41.2593 29.4044 41.2842 29.2831C41.309 29.1618 41.3096 29.0367 41.2859 28.9152C41.2621 28.7936 41.2145 28.678 41.1459 28.5749C41.0772 28.4719 40.9888 28.3835 40.8857 28.3148C40.7827 28.2461 40.667 28.1985 40.5455 28.1748C40.4239 28.151 40.2989 28.1516 40.1776 28.1765C38.4919 28.5046 36.581 28.2213 34.2577 27.2829C35.2474 26.7882 36.0287 26.304 36.7916 25.8307C38.2447 24.9296 39.5004 24.1511 41.9635 23.4797C48.3007 21.7522 53.1271 23.7718 55.2055 29.0202C56.2146 31.6624 56.4251 34.5428 55.8108 37.3036C55.2015 40.0118 53.8304 42.1071 52.049 43.0527C48.764 44.7963 47.1566 45.8027 46.3155 47.1621C45.4363 48.5821 45.5655 50.1166 45.7788 52.6588C45.8113 53.0458 45.8463 53.4605 45.8804 53.9066C46.3583 60.1591 45.4608 68.2952 41.5188 72.3691C41.3946 72.4503 41.2588 72.5123 41.116 72.5529C40.8932 72.6369 40.6469 72.6345 40.4258 72.5461C40.2047 72.4577 40.0246 72.2897 39.9212 72.0752C39.8443 71.8971 39.8228 71.7 39.8596 71.5096C39.8644 71.4841 39.8682 71.4583 39.871 71.4325C39.9327 70.8419 41.3122 56.8808 35.1807 49.2304C34.8162 48.7835 34.3573 48.4227 33.837 48.174C33.3168 47.9252 32.7479 47.7945 32.1712 47.7914C31.5945 47.7882 31.0243 47.9126 30.5013 48.1557C29.9783 48.3987 29.5156 48.7544 29.1462 49.1972C22.893 56.8086 24.2877 70.8396 24.3501 71.4332C24.3527 71.4588 24.3564 71.4843 24.3613 71.5096C24.3981 71.7001 24.3767 71.8972 24.2997 72.0754C24.1962 72.2898 24.0162 72.4577 23.795 72.5461C23.5739 72.6344 23.3277 72.6368 23.1049 72.5527C22.9675 72.511 22.8356 72.4526 22.7124 72.3788C18.7602 68.2941 17.8626 60.1585 18.3407 53.9065C18.3749 53.4585 18.4099 53.0418 18.4427 52.6529C18.6563 50.1118 18.7854 48.5779 17.9063 47.1575C17.0644 45.7968 15.4568 44.7913 12.1718 43.0522Z" fill="#173435"></path><path d="M71.3494 9.01924H30.3566L28.9452 7.61299C28.2797 6.94596 27.4888 6.41723 26.618 6.05727C25.7473 5.69731 24.8139 5.51323 23.8717 5.51565H8.65625C7.99342 5.51635 7.35795 5.77997 6.88926 6.24866C6.42057 6.71735 6.15695 7.35282 6.15625 8.01565V15.1747C6.15625 15.4233 6.25502 15.6618 6.43084 15.8376C6.60665 16.0134 6.84511 16.1122 7.09375 16.1122C7.34239 16.1122 7.58085 16.0134 7.75666 15.8376C7.93248 15.6618 8.03125 15.4233 8.03125 15.1747V8.01565C8.03125 7.84989 8.0971 7.69092 8.21431 7.57371C8.33152 7.4565 8.49049 7.39065 8.65625 7.39065H9.04344V15.2786C9.04344 15.5273 9.14221 15.7657 9.31802 15.9415C9.49384 16.1173 9.7323 16.2161 9.98094 16.2161C10.2296 16.2161 10.468 16.1173 10.6438 15.9415C10.8197 15.7657 10.9184 15.5273 10.9184 15.2786V7.39065H11.7622V15.2786C11.7622 15.5273 11.861 15.7657 12.0368 15.9415C12.2126 16.1173 12.451 16.2161 12.6997 16.2161C12.9483 16.2161 13.1868 16.1173 13.3626 15.9415C13.5384 15.7657 13.6372 15.5273 13.6372 15.2786V7.39065H14.4809V15.2786C14.4809 15.5273 14.5797 15.7657 14.7555 15.9415C14.9313 16.1173 15.1698 16.2161 15.4184 16.2161C15.6671 16.2161 15.9055 16.1173 16.0813 15.9415C16.2572 15.7657 16.3559 15.5273 16.3559 15.2786V7.39065H17.1997V15.2786C17.1997 15.5273 17.2985 15.7657 17.4743 15.9415C17.6501 16.1173 17.8885 16.2161 18.1372 16.2161C18.3858 16.2161 18.6243 16.1173 18.8001 15.9415C18.9759 15.7657 19.0747 15.5273 19.0747 15.2786V7.39065H19.9184V15.2786C19.9184 15.5273 20.0172 15.7657 20.193 15.9415C20.3688 16.1173 20.6073 16.2161 20.8559 16.2161C21.1046 16.2161 21.343 16.1173 21.5188 15.9415C21.6947 15.7657 21.7934 15.5273 21.7934 15.2786V7.39065H22.6372V15.2786C22.6372 15.5273 22.736 15.7657 22.9118 15.9415C23.0876 16.1173 23.326 16.2161 23.5747 16.2161C23.8233 16.2161 24.0618 16.1173 24.2376 15.9415C24.4134 15.7657 24.5122 15.5273 24.5122 15.2786V7.4308C25.6889 7.57042 26.7842 8.10236 27.6216 8.9408L30.6144 11.923C31.2799 12.5897 32.0709 13.1182 32.9416 13.478C33.8123 13.8378 34.7456 14.0217 35.6877 14.0192H71.3494C72.0124 14.0192 72.6483 13.7558 73.1171 13.287C73.586 12.8182 73.8494 12.1823 73.8494 11.5192C73.8494 10.8562 73.586 10.2203 73.1171 9.75147C72.6483 9.28263 72.0124 9.01924 71.3494 9.01924ZM71.3494 12.1442H35.6877C34.4341 12.1477 33.2202 11.7046 32.2637 10.8942H71.3494C71.5151 10.8942 71.6741 10.9601 71.7913 11.0773C71.9085 11.1945 71.9744 11.3535 71.9744 11.5192C71.9744 11.685 71.9085 11.844 71.7913 11.9612C71.6741 12.0784 71.5151 12.1442 71.3494 12.1442Z" fill="#5CD8DF"></path></svg>