<svg xmlns:xlink="http://www.w3.org/1999/xlink" xmlns="http://www.w3.org/2000/svg" width="80" height="80" viewBox="0 0 80 80" fill="none"><rect y="20" width="57" height="57" rx="28.5" fill="#E1F8FA"></rect><path d="M46.5356 10.8557C48.368 9.71963 49.9505 8.73838 53.0622 7.89026C55.6622 7.18135 58.0609 6.97307 60.2086 7.23729C57.1256 5.39432 53.0787 5.04541 48.3747 6.32807C45.263 7.17619 43.6805 8.15744 41.8481 9.29354C40.6846 10.0412 39.4779 10.7195 38.2344 11.3248C40.0719 12.1079 41.7105 12.5768 43.2064 12.7479C44.3484 12.1758 45.4597 11.5442 46.5356 10.8557Z" fill="#E1F8FA"></path><path d="M26.652 66.4715C26.6501 66.4539 26.6442 66.3959 26.6363 66.3025C23.5582 60.7643 22.8645 52.6368 23.3617 46.1326C23.4046 45.5718 23.4484 45.0506 23.4895 44.5639C23.7524 41.4356 23.9113 39.5473 22.8531 37.8379C21.8348 36.1926 19.7593 34.899 15.7738 32.7893C13.577 31.6264 11.8988 29.2926 11.0503 26.2184C10.2164 23.0883 10.2879 19.7859 11.2565 16.6948C12.2253 13.6636 14.0074 11.2232 16.4099 9.6373C19.2159 7.78543 22.7618 7.12793 26.9501 7.68418C27.0979 7.70386 27.247 7.72824 27.3982 7.75465C25.6507 6.96683 23.8682 6.33465 22.2626 6.12168C18.0751 5.56621 14.5282 6.22371 11.7224 8.0748C9.31916 9.66074 7.53713 12.1012 6.56822 15.1323C5.59962 18.2234 5.5281 21.5258 6.36197 24.6559C7.21103 27.7301 8.88869 30.0639 11.0856 31.2268C15.0699 33.3362 17.1465 34.6301 18.1648 36.2754C19.2231 37.9848 19.0642 39.8731 18.8012 43.0014C18.7601 43.4881 18.7163 44.0093 18.6734 44.5701C18.072 52.4364 19.209 62.6809 24.2046 67.8422C24.3807 67.9678 24.5778 68.061 24.7867 68.1173C25.0196 68.2101 25.2733 68.2381 25.5208 68.1985C25.7684 68.1589 26.0007 68.0531 26.193 67.8923C26.3854 67.7315 26.5307 67.5217 26.6136 67.285C26.6965 67.0484 26.7138 66.7938 26.6638 66.5481C26.6585 66.5228 26.6548 66.4973 26.652 66.4715Z" fill="#E1F8FA"></path><path d="M60.4037 5.07357C56.9637 3.33779 52.7768 3.12341 47.9591 4.43748C44.5843 5.35669 42.8126 6.45498 40.9376 7.61794C39.6455 8.41904 38.3098 9.24748 36.3171 10.0808C36.2422 10.1127 36.1696 10.15 36.1001 10.1923C35.6313 9.93888 35.0532 9.60498 34.4095 9.23294C31.2901 7.43154 26.5762 4.70935 22.5863 4.18013C13.9163 3.03123 7.28914 6.88029 4.86023 14.4794C2.53132 21.7656 4.96539 29.9843 10.2863 32.802C13.8895 34.7093 15.8627 35.9101 16.6487 37.1801C17.3807 38.3628 17.2494 39.9254 17.0107 42.7623C16.9694 43.2533 16.9251 43.7794 16.8819 44.3453C16.533 48.9089 16.7843 53.6198 17.5898 57.6109C18.5932 62.5828 20.3915 66.4364 22.9351 69.064C23.2187 69.3568 23.6501 69.6001 24.2541 69.8078C24.6079 69.9299 24.9795 69.9922 25.3537 69.9923C25.8334 69.9991 26.3086 69.8994 26.7452 69.7005C27.1818 69.5016 27.5688 69.2083 27.8785 68.8418C28.1881 68.4754 28.4127 68.0448 28.536 67.5812C28.6593 67.1175 28.6782 66.6323 28.5915 66.1604C28.509 65.307 27.011 48.6136 34.122 39.9573C34.3845 39.6463 34.7121 39.3968 35.0817 39.2262C35.4512 39.0557 35.8537 38.9684 36.2607 38.9705C36.6677 38.9726 37.0693 39.064 37.4371 39.2382C37.8049 39.4125 38.1299 39.6654 38.3893 39.979C38.7696 40.4548 39.1247 40.9503 39.4529 41.4634C39.5185 41.5688 39.6044 41.6601 39.7057 41.732C39.8069 41.804 39.9214 41.8551 40.0425 41.8824C40.1636 41.9097 40.289 41.9127 40.4112 41.8911C40.5335 41.8696 40.6503 41.824 40.7548 41.757C40.8593 41.6899 40.9495 41.6028 41.0201 41.5006C41.0906 41.3985 41.1402 41.2833 41.1659 41.1618C41.1916 41.0404 41.1929 40.915 41.1697 40.793C41.1466 40.671 41.0994 40.5548 41.031 40.4512C40.6671 39.8826 40.2736 39.3335 39.8521 38.8061C39.4182 38.2747 38.8723 37.8458 38.2533 37.5501C37.6343 37.2543 36.9577 37.0991 36.2717 37.0953C35.5857 37.0916 34.9074 37.2395 34.2853 37.5285C33.6631 37.8175 33.1125 38.2404 32.6729 38.767C29.4007 42.75 27.4073 48.6193 26.7476 56.212C26.4463 59.5973 26.4404 63.0024 26.7298 66.3887C26.7324 66.4143 26.7362 66.4398 26.7412 66.4653C26.7911 66.711 26.7737 66.9656 26.6908 67.2022C26.6079 67.4388 26.4626 67.6486 26.2703 67.8094C26.0779 67.9701 25.8457 68.0759 25.5981 68.1155C25.3506 68.1552 25.0969 68.1271 24.864 68.0343C24.6551 67.9781 24.458 67.8849 24.2819 67.7592C21.0066 64.375 17.8338 56.4843 18.7507 44.4873C18.7935 43.9264 18.8374 43.4051 18.8784 42.9186C19.1415 39.7901 19.3002 37.9019 18.2423 36.1925C17.2238 34.5472 15.1485 33.2537 11.1629 31.1439C8.96601 29.9809 7.28789 27.6472 6.43929 24.5729C5.6055 21.4428 5.67702 18.1403 6.64554 15.0492C7.61429 12.0179 9.39648 9.57779 11.799 7.99185C14.6055 6.1406 18.1518 5.48326 22.3399 6.03888C25.9609 6.51919 30.4805 9.12951 33.4718 10.8565C34.3676 11.374 35.1413 11.8208 35.7127 12.105C38.471 13.4769 42.6091 15.2087 46.6855 14.4133C46.9277 14.3636 47.1404 14.2204 47.2775 14.0148C47.4145 13.8092 47.4649 13.5577 47.4175 13.3151C47.3701 13.0726 47.2289 12.8585 47.0245 12.7196C46.8201 12.5806 46.5692 12.528 46.3262 12.5731C44.0591 13.0156 41.479 12.5887 38.3141 11.2414C39.5568 10.6364 40.7627 9.95852 41.9255 9.21138C43.758 8.07529 45.3404 7.09404 48.4521 6.24591C56.5018 4.05107 62.6369 6.62701 65.284 13.3112C66.5518 16.5129 66.8316 20.337 66.0515 23.8034C65.2748 27.2553 63.5176 29.9314 61.2304 31.1453C59.0332 32.3114 57.3215 33.2742 56.1093 34.1828C55.9104 34.332 55.7789 34.5541 55.7437 34.8002C55.7086 35.0463 55.7726 35.2964 55.9218 35.4953C56.071 35.6942 56.2931 35.8257 56.5392 35.8609C56.7854 35.896 57.0354 35.832 57.2343 35.6828C58.3498 34.8467 59.9901 33.9261 62.1093 32.8011C64.9209 31.3087 66.9704 28.2592 67.8807 24.2147C68.7413 20.3897 68.4302 16.1637 67.0271 12.6209C65.666 9.18294 63.3751 6.57294 60.4037 5.07357Z" fill="#173435"></path><path d="M54.7656 33.9062C43.0484 33.9062 33.5156 43.4391 33.5156 55.1562C33.5156 66.8734 43.0484 76.4062 54.7656 76.4062C66.4828 76.4062 76.0156 66.8734 76.0156 55.1562C76.0156 43.4391 66.4828 33.9062 54.7656 33.9062ZM54.7656 74.5312C50.9336 74.5312 47.1877 73.3949 44.0015 71.266C40.8152 69.137 38.3319 66.1111 36.8655 62.5707C35.399 59.0304 35.0153 55.1348 35.7629 51.3764C36.5105 47.618 38.3558 44.1657 41.0654 41.4561C43.7751 38.7464 47.2274 36.9011 50.9858 36.1535C54.7441 35.4059 58.6398 35.7896 62.1801 37.2561C65.7204 38.7225 68.7464 41.2059 70.8754 44.3921C73.0043 47.5783 74.1406 51.3242 74.1406 55.1562C74.1348 60.293 72.0917 65.2178 68.4594 68.8501C64.8272 72.4823 59.9024 74.5255 54.7656 74.5312Z" fill="#5CD8DF"></path><path d="M53.667 42.8195C54.3753 42.8195 55.0612 42.5615 55.7246 42.0453C55.8943 41.913 56.041 41.7851 56.1706 41.6722C56.4423 41.3977 56.7721 41.1875 57.1357 41.0572C57.6313 40.8887 58.241 40.9566 58.9482 41.2586C59.1767 41.3557 59.4344 41.3581 59.6647 41.2654C59.895 41.1728 60.0792 40.9925 60.1768 40.7642C60.2744 40.5359 60.2774 40.2783 60.1853 40.0477C60.0931 39.8172 59.9133 39.6326 59.6852 39.5345C58.5407 39.045 57.4801 38.9602 56.5329 39.2819C55.9376 39.4892 55.394 39.8225 54.9391 40.2591C54.8173 40.3655 54.7021 40.4658 54.5732 40.5662C54.0407 40.9808 53.3557 41.3144 51.9482 40.0159C51.8577 39.9325 51.7517 39.8676 51.6361 39.8251C51.5206 39.7826 51.3978 39.7633 51.2748 39.7682C51.1518 39.7732 51.0309 39.8023 50.9192 39.854C50.8074 39.9056 50.7069 39.9788 50.6234 40.0693C50.54 40.1598 50.4751 40.2658 50.4326 40.3814C50.3901 40.4969 50.3708 40.6197 50.3758 40.7427C50.3807 40.8657 50.4099 40.9866 50.4615 41.0983C50.5132 41.2101 50.5863 41.3106 50.6768 41.3941C51.7056 42.3437 52.7054 42.8195 53.667 42.8195Z" fill="#5CD8DF"></path><path d="M51.2936 51.9972C51.0516 51.9405 50.7969 51.9821 50.5856 52.113C50.3742 52.2438 50.2234 52.4532 50.1663 52.6951C49.578 55.1951 50.2552 56.8696 52.1794 57.6714C52.3903 57.7593 52.5857 57.8286 52.7589 57.8901C53.2016 58.0464 53.4933 58.1496 53.8633 58.4798C54.2944 58.8648 54.5597 59.4834 54.6519 60.3186C54.6772 60.5478 54.786 60.7597 54.9577 60.9138C55.1294 61.0678 55.3519 61.1531 55.5825 61.1534C55.6173 61.1533 55.652 61.1514 55.6866 61.1476C55.809 61.1341 55.9275 61.0966 56.0354 61.0373C56.1433 60.978 56.2384 60.8981 56.3154 60.802C56.3924 60.7059 56.4497 60.5956 56.4841 60.4774C56.5184 60.3591 56.5292 60.2353 56.5157 60.1129C56.3711 58.804 55.8992 57.7848 55.1125 57.0817C54.6119 56.6412 54.022 56.314 53.3833 56.1225C53.2189 56.0645 53.0638 56.0095 52.9005 55.9417C52.2082 55.6529 51.5099 55.1736 51.9916 53.1254C52.0199 53.0055 52.0244 52.8812 52.0046 52.7596C51.9849 52.6379 51.9413 52.5214 51.8765 52.4166C51.8117 52.3118 51.7268 52.2208 51.6268 52.1489C51.5268 52.0769 51.4136 52.0253 51.2936 51.9972Z" fill="#5CD8DF"></path><path d="M66.0574 55.9062C65.9252 56.0198 65.8005 56.1273 65.6602 56.2353C65.0655 56.6928 64.3024 57.0603 62.7651 55.6243C62.5834 55.4546 62.3417 55.364 62.0931 55.3724C61.8446 55.3809 61.6097 55.4878 61.4399 55.6695C61.2702 55.8512 61.1796 56.0929 61.188 56.3414C61.1965 56.5899 61.3034 56.8249 61.4851 56.9946C62.5746 58.012 63.634 58.5214 64.6544 58.5214C65.3926 58.5214 66.1089 58.2547 66.8035 57.7213C66.9848 57.5818 67.1423 57.4463 67.281 57.3268C67.6366 57.0204 67.8716 56.8181 68.3418 56.6615C68.8901 56.4787 69.5583 56.5563 70.3293 56.8912C70.5558 56.9826 70.8091 56.9819 71.0352 56.8894C71.2612 56.7969 71.4423 56.6197 71.5397 56.3957C71.6372 56.1717 71.6433 55.9185 71.5569 55.6901C71.4705 55.4616 71.2983 55.2759 71.0769 55.1724C69.8694 54.6471 68.7488 54.5498 67.7488 54.8831C67.118 55.0984 66.541 55.4474 66.0574 55.9062Z" fill="#5CD8DF"></path><path d="M64.957 50.6674C65.1197 50.6673 65.2796 50.6248 65.4209 50.5442C65.5622 50.4635 65.6801 50.3475 65.763 50.2075C65.8458 50.0674 65.8908 49.9083 65.8935 49.7456C65.8963 49.5829 65.8566 49.4223 65.7784 49.2796C65.6018 48.9598 65.5514 48.5854 65.6371 48.2302C65.7228 47.875 65.9385 47.5648 66.2416 47.3607C66.6634 47.0745 67.0142 46.6956 67.267 46.2529C67.5199 45.8103 67.6682 45.3156 67.7005 44.8069C67.7328 44.2981 67.6482 43.7887 67.4534 43.3176C67.2585 42.8466 66.9585 42.4263 66.5763 42.089C66.4839 42.0075 66.3764 41.9451 66.26 41.9052C66.1435 41.8652 66.0203 41.8486 65.8974 41.8563C65.7745 41.864 65.6543 41.8958 65.5437 41.95C65.4331 42.0041 65.3343 42.0795 65.2528 42.1718C65.1714 42.2642 65.1089 42.3716 65.069 42.4881C65.029 42.6046 65.0124 42.7278 65.0201 42.8507C65.0278 42.9736 65.0596 43.0938 65.1138 43.2044C65.1679 43.3149 65.2433 43.4138 65.3356 43.4953C65.5035 43.6433 65.6352 43.8278 65.7208 44.0346C65.8063 44.2414 65.8434 44.4651 65.8293 44.6884C65.8151 44.9118 65.75 45.1289 65.639 45.3233C65.528 45.5176 65.374 45.684 65.1888 45.8096C64.4982 46.2743 64.0069 46.9809 63.8116 47.79C63.6164 48.599 63.7314 49.4519 64.1339 50.1804C64.2148 50.328 64.3339 50.4511 64.4787 50.5368C64.6235 50.6225 64.7888 50.6676 64.957 50.6674Z" fill="#5CD8DF"></path><path d="M57.0658 66.2656C56.8179 66.2461 56.5725 66.3259 56.3834 66.4874C56.1944 66.649 56.0773 66.8789 56.0578 67.1268C56.0376 67.3844 55.9564 67.6334 55.821 67.8535C55.6856 68.0735 55.4999 68.2582 55.2791 68.3924C55.0583 68.5266 54.8088 68.6063 54.5511 68.6252C54.2934 68.644 54.035 68.6014 53.797 68.5007L53.432 68.3463C52.9845 68.157 52.5025 68.0627 52.0166 68.0696C51.5307 68.0765 51.0515 68.1843 50.6095 68.3862C50.1674 68.5881 49.7722 68.8797 49.4489 69.2425C49.1256 69.6053 48.8813 70.0314 48.7314 70.4937L48.6689 70.6843C48.6299 70.8017 48.6145 70.9256 48.6236 71.049C48.6328 71.1724 48.6662 71.2927 48.722 71.4031C48.7778 71.5134 48.855 71.6117 48.9489 71.6921C49.0429 71.7726 49.1519 71.8336 49.2695 71.8717C49.3872 71.9099 49.5112 71.9244 49.6345 71.9143C49.7578 71.9043 49.8779 71.87 49.9879 71.8134C50.0978 71.7567 50.1955 71.6789 50.2752 71.5843C50.355 71.4898 50.4152 71.3804 50.4525 71.2624L50.515 71.0718C50.5847 70.8568 50.6983 70.6586 50.8487 70.4898C50.999 70.3211 51.1828 70.1854 51.3884 70.0915C51.594 69.9975 51.8169 69.9474 52.0429 69.9442C52.2689 69.941 52.4931 69.9848 52.7013 70.0729L53.0663 70.2273C53.5778 70.4437 54.1334 70.5356 54.6874 70.4952C55.2414 70.4547 55.7778 70.2833 56.2525 69.9949C56.7272 69.7065 57.1266 69.3094 57.4177 68.8364C57.7089 68.3633 57.8834 67.8279 57.927 67.2742C57.9368 67.1514 57.9222 67.0279 57.8842 66.9107C57.8461 66.7936 57.7854 66.6851 57.7054 66.5914C57.6254 66.4977 57.5278 66.4208 57.418 66.3648C57.3083 66.3089 57.1886 66.2752 57.0658 66.2656Z" fill="#5CD8DF"></path><path d="M45.3087 51.8877C45.2958 51.6408 45.1858 51.409 45.0027 51.2427C44.8197 51.0765 44.5784 50.9893 44.3313 51.0002C44.0843 51.011 43.8515 51.1191 43.6838 51.3007C43.516 51.4824 43.4268 51.723 43.4356 51.9701C43.4469 52.2282 43.3967 52.4853 43.2891 52.7202C43.1816 52.9551 43.0198 53.1611 42.817 53.3212C42.6142 53.4813 42.3763 53.5909 42.1228 53.641C41.8693 53.6911 41.6076 53.6802 41.3592 53.6093L40.9782 53.4999C40.511 53.3666 40.0211 53.3319 39.5396 53.398C39.0582 53.4641 38.5958 53.6296 38.1817 53.8839C37.7677 54.1382 37.411 54.4759 37.1344 54.8754C36.8577 55.2749 36.6672 55.7275 36.5748 56.2046L36.5367 56.4013C36.5132 56.5222 36.5138 56.6465 36.5384 56.7671C36.563 56.8878 36.6111 57.0024 36.68 57.1044C36.7489 57.2065 36.8372 57.294 36.9399 57.3619C37.0426 57.4298 37.1577 57.4768 37.2786 57.5002C37.3377 57.5116 37.3978 57.5174 37.4581 57.5174C37.6756 57.5172 37.8863 57.4413 38.054 57.3029C38.2217 57.1644 38.3361 56.9719 38.3775 56.7584L38.4156 56.5612C38.4585 56.3392 38.5472 56.1287 38.6758 55.9428C38.8045 55.757 38.9704 55.5999 39.163 55.4816C39.3556 55.3633 39.5707 55.2863 39.7947 55.2556C40.0186 55.2248 40.2465 55.241 40.4639 55.3031L40.8448 55.4116C41.379 55.5641 41.9417 55.5874 42.4867 55.4797C43.0316 55.3719 43.5431 55.1362 43.9791 54.792C44.4151 54.4477 44.763 54.0048 44.9941 53.4997C45.2253 52.9946 45.3331 52.4418 45.3087 51.8868V51.8877Z" fill="#5CD8DF"></path><path d="M45.938 58.5415C45.8408 58.617 45.7594 58.711 45.6985 58.818C45.6376 58.925 45.5984 59.043 45.5831 59.1652C45.5678 59.2873 45.5767 59.4113 45.6093 59.53C45.6419 59.6488 45.6976 59.7599 45.7732 59.8571C45.9298 60.0583 46.0319 60.2965 46.0697 60.5487C46.1075 60.8009 46.0797 61.0586 45.989 61.2969C45.8983 61.5352 45.7477 61.7462 45.5518 61.9094C45.3558 62.0726 45.1211 62.1825 44.8703 62.2287C44.3941 62.3167 43.9425 62.5067 43.5465 62.7856C43.1506 63.0644 42.8195 63.4256 42.5762 63.8443C42.3328 64.263 42.1828 64.7294 42.1365 65.2115C42.0902 65.6936 42.1486 66.18 42.3078 66.6374C42.3896 66.8723 42.5613 67.065 42.7852 67.1733C43.0091 67.2815 43.2668 67.2964 43.5016 67.2146C43.7364 67.1329 43.9292 66.9611 44.0374 66.7373C44.1457 66.5134 44.1605 66.2557 44.0788 66.0209C44.0083 65.8187 43.9824 65.6037 44.0028 65.3906C44.0233 65.1775 44.0895 64.9713 44.1971 64.7862C44.3047 64.6011 44.4511 64.4415 44.6262 64.3183C44.8012 64.1951 45.0009 64.1112 45.2114 64.0724C45.7788 63.9679 46.3097 63.7189 46.7529 63.3497C47.1962 62.9804 47.5369 62.5031 47.7421 61.964C47.9474 61.4248 48.0104 60.8418 47.9249 60.2713C47.8395 59.7007 47.6086 59.1617 47.2544 58.7063C47.1788 58.609 47.0848 58.5275 46.9778 58.4666C46.8707 58.4056 46.7526 58.3663 46.6304 58.351C46.5081 58.3357 46.384 58.3446 46.2652 58.3773C46.1464 58.41 46.0352 58.4658 45.938 58.5415Z" fill="#5CD8DF"></path><path d="M41.3257 45.4842C41.4327 45.5451 41.5506 45.5844 41.6728 45.5997C41.795 45.615 41.919 45.6061 42.0377 45.5735C42.1564 45.5408 42.2676 45.4851 42.3648 45.4096C42.462 45.334 42.5434 45.24 42.6043 45.133C42.7256 44.9198 42.9105 44.7499 43.1331 44.6468C43.3557 44.5438 43.605 44.5128 43.846 44.5581C44.0871 44.6035 44.308 44.7229 44.4779 44.8999C44.6479 45.0768 44.7583 45.3023 44.7939 45.545C44.8809 46.168 45.16 46.7484 45.5924 47.2052C46.0248 47.6621 46.589 47.9726 47.2063 48.0936C47.412 48.1355 47.6214 48.1567 47.8313 48.1569C48.3532 48.1573 48.8663 48.0222 49.3205 47.765C49.7746 47.5077 50.1543 47.1371 50.4224 46.6892C50.5517 46.4769 50.5913 46.2218 50.5325 45.9802C50.4738 45.7386 50.3215 45.5302 50.1091 45.401C49.8967 45.2717 49.6417 45.232 49.4001 45.2908C49.1585 45.3495 48.9501 45.5019 48.8208 45.7142C48.6948 45.9212 48.508 46.0843 48.2859 46.1812C48.0638 46.2782 47.8172 46.3043 47.5798 46.256C47.3423 46.2077 47.1255 46.0873 46.9589 45.9113C46.7924 45.7353 46.6841 45.5123 46.6489 45.2725C46.5567 44.6435 46.2704 44.059 45.83 43.6005C45.3896 43.142 44.8171 42.8325 44.1923 42.715C43.5675 42.5975 42.9217 42.6779 42.3448 42.9451C41.768 43.2123 41.2889 43.6528 40.9744 44.2053C40.9135 44.3124 40.8742 44.4303 40.8589 44.5526C40.8435 44.6748 40.8524 44.7988 40.885 44.9176C40.9177 45.0363 40.9734 45.1475 41.049 45.2447C41.1246 45.342 41.2186 45.4234 41.3257 45.4842Z" fill="#5CD8DF"></path><path d="M64.5765 68.1668C64.3345 68.1793 64.0945 68.1169 63.8893 67.988C63.684 67.8592 63.5234 67.6702 63.4295 67.4468C63.3355 67.2234 63.3128 66.9764 63.3642 66.7396C63.4157 66.5028 63.539 66.2876 63.7172 66.1234C64.1846 65.6926 64.506 65.1267 64.6365 64.5046C64.7669 63.8824 64.6999 63.2351 64.4449 62.6529C64.1898 62.0706 63.7594 61.5825 63.2136 61.2566C62.6679 60.9307 62.034 60.7832 61.4004 60.8348C61.1526 60.855 60.923 60.9728 60.762 61.1623C60.601 61.3519 60.522 61.5976 60.5422 61.8454C60.5624 62.0932 60.6802 62.3229 60.8697 62.4838C61.0593 62.6448 61.305 62.7239 61.5528 62.7037C61.7973 62.6838 62.0418 62.7408 62.2524 62.8666C62.4629 62.9923 62.629 63.1807 62.7274 63.4054C62.8258 63.63 62.8516 63.8798 62.8013 64.1198C62.751 64.3599 62.627 64.5782 62.4467 64.7445C61.9952 65.1605 61.6795 65.7029 61.541 66.301C61.4024 66.8991 61.4474 67.5251 61.67 68.0973C61.8926 68.6694 62.2826 69.1612 62.7889 69.5084C63.2952 69.8556 63.8945 70.0421 64.5084 70.0435C64.5633 70.0435 64.6178 70.0423 64.6737 70.0393C64.922 70.0264 65.1551 69.9155 65.3215 69.7308C65.488 69.5461 65.5743 69.3028 65.5615 69.0545C65.5486 68.8062 65.4376 68.5732 65.2529 68.4067C65.0683 68.2402 64.825 68.1539 64.5767 68.1668H64.5765Z" fill="#5CD8DF"></path><path d="M60.7172 51.867C60.7034 51.619 60.5922 51.3866 60.4078 51.2203C60.2235 51.0541 59.9808 50.9674 59.7328 50.9793C59.4908 50.9918 59.2508 50.9294 59.0455 50.8005C58.8402 50.6717 58.6797 50.4827 58.5857 50.2593C58.4918 50.0359 58.469 49.7889 58.5205 49.5521C58.572 49.3153 58.6952 49.1001 58.8734 48.9359C59.3409 48.5051 59.6622 47.9392 59.7927 47.3171C59.9231 46.6949 59.8562 46.0476 59.6011 45.4654C59.3461 44.8831 58.9156 44.395 58.3699 44.0691C57.8241 43.7432 57.1903 43.5957 56.5567 43.6473C56.3089 43.6675 56.0792 43.7853 55.9183 43.9748C55.7573 44.1644 55.6782 44.4101 55.6984 44.6579C55.7186 44.9057 55.8364 45.1354 56.026 45.2963C56.2155 45.4573 56.4612 45.5364 56.709 45.5162C56.9535 45.4963 57.1981 45.5533 57.4086 45.6791C57.6192 45.8048 57.7852 45.9932 57.8836 46.2179C57.982 46.4425 58.0079 46.6923 57.9576 46.9323C57.9072 47.1724 57.7833 47.3907 57.6029 47.557C57.1514 47.973 56.8358 48.5154 56.6972 49.1135C56.5587 49.7116 56.6037 50.3376 56.8263 50.9097C57.0489 51.4819 57.4388 51.9737 57.9451 52.3209C58.4515 52.6681 59.0507 52.8546 59.6647 52.856C59.7195 52.856 59.774 52.8548 59.83 52.8518C60.0782 52.8388 60.3111 52.7277 60.4775 52.5431C60.6438 52.3584 60.7301 52.1152 60.7172 51.867Z" fill="#5CD8DF"></path></svg>