<svg xmlns:xlink="http://www.w3.org/1999/xlink" xmlns="http://www.w3.org/2000/svg" width="80" height="80" viewBox="0 0 80 80" fill="none"><rect x="8" y="10" width="57" height="57" rx="28.5" fill="#E1F8FA"></rect><path d="M14.341 73.4733C12.4064 72.0059 10.8384 70.1101 9.75986 67.9347C8.68135 65.7593 8.12176 63.3635 8.12501 60.9355C8.12501 60.4803 8.1447 60.0208 8.1833 59.5694C8.49029 56.0464 9.97393 52.7293 12.3954 50.1521C14.8168 47.5748 18.0351 45.8875 21.532 45.3617C20.7562 45.2451 19.9728 45.1861 19.1883 45.1853C15.2474 45.1853 11.4497 46.6625 8.54457 49.3254C5.63947 51.9883 3.83804 55.6434 3.4958 59.5694C3.4572 60.0208 3.43751 60.4803 3.43751 60.9355C3.43426 63.3635 3.99385 65.7593 5.07236 67.9347C6.15087 70.1101 7.71894 72.0059 9.65345 73.4733C12.3897 75.5673 15.742 76.6969 19.1875 76.6859C19.972 76.686 20.7554 76.6276 21.5313 76.5114C18.9155 76.1255 16.441 75.08 14.341 73.4733Z" fill="#E1F8FA"></path><path d="M74.5377 4.99218H54.722C54.211 3.92777 53.4097 3.02941 52.4103 2.40063C51.411 1.77185 50.2543 1.43823 49.0736 1.43823C47.8929 1.43823 46.7362 1.77185 45.7369 2.40063C44.7375 3.02941 43.9362 3.92777 43.4252 4.99218H23.6094C22.5758 4.99338 21.5849 5.40449 20.8541 6.13533C20.1232 6.86617 19.7121 7.85705 19.7109 8.89062V44.2614C19.7109 44.51 19.8097 44.7485 19.9855 44.9243C20.1613 45.1001 20.3998 45.1989 20.6484 45.1989C20.8971 45.1989 21.1355 45.1001 21.3114 44.9243C21.4872 44.7485 21.5859 44.51 21.5859 44.2614V8.89062C21.5866 8.35417 21.8 7.83988 22.1793 7.46056C22.5586 7.08123 23.0729 6.86784 23.6094 6.86718H42.8642C42.8263 7.14527 42.807 7.42558 42.8064 7.70624V9.43374H33.9728C33.7242 9.43374 33.4857 9.53251 33.3099 9.70833C33.1341 9.88414 33.0353 10.1226 33.0353 10.3712V13.1469H28.9959C28.3549 13.1476 27.7403 13.4025 27.287 13.8558C26.8337 14.3091 26.5787 14.9236 26.578 15.5647V46.4289C26.578 46.6775 26.6767 46.916 26.8526 47.0918C27.0284 47.2676 27.2668 47.3664 27.5155 47.3664C27.7641 47.3664 28.0026 47.2676 28.1784 47.0918C28.3542 46.916 28.453 46.6775 28.453 46.4289V15.5647C28.4531 15.4207 28.5104 15.2827 28.6122 15.181C28.714 15.0792 28.852 15.022 28.9959 15.0219H33.0353V17.4773C33.0353 17.726 33.1341 17.9644 33.3099 18.1402C33.4857 18.3161 33.7242 18.4148 33.9728 18.4148H64.1744C64.423 18.4148 64.6615 18.3161 64.8373 18.1402C65.0131 17.9644 65.1119 17.726 65.1119 17.4773V15.0219H69.1511C69.295 15.022 69.433 15.0792 69.5348 15.181C69.6366 15.2827 69.6939 15.4207 69.6941 15.5647V55.8395H64.9589C63.9253 55.8407 62.9345 56.2518 62.2036 56.9826C61.4728 57.7135 61.0617 58.7044 61.0606 59.738V64.3473H35.2808V66.2223H61.4248C61.5443 66.2214 61.6636 66.2128 61.7819 66.1964C61.9467 66.2362 62.1193 66.2301 62.281 66.1789C62.4426 66.1277 62.5872 66.0332 62.6991 65.9058C62.9365 65.779 63.1538 65.6178 63.3439 65.4272L70.7739 57.9973C71.0268 57.7459 71.2273 57.4469 71.3638 57.1174C71.5003 56.788 71.5701 56.4347 71.5691 56.0781V15.5647C71.5683 14.9236 71.3133 14.3091 70.86 13.8558C70.4067 13.4025 69.7921 13.1476 69.1511 13.1469H65.1119V10.3712C65.1119 10.1226 65.0131 9.88414 64.8373 9.70833C64.6615 9.53251 64.423 9.43374 64.1744 9.43374H55.3406V7.70624C55.3401 7.42557 55.3208 7.14526 55.2828 6.86718H74.5377C75.0741 6.86784 75.5884 7.08123 75.9677 7.46056C76.347 7.83988 76.5604 8.35417 76.5611 8.89062V70.4784C76.5604 71.0149 76.347 71.5291 75.9677 71.9084C75.5884 72.2877 75.0741 72.5011 74.5377 72.5017H30.1705V74.3767H74.5377C75.5712 74.3756 76.5621 73.9645 77.2929 73.2337C78.0238 72.5029 78.4349 71.512 78.4361 70.4784V8.89062C78.4349 7.85704 78.0238 6.86613 77.293 6.13528C76.5621 5.40443 75.5712 4.99334 74.5377 4.99218ZM62.9361 63.1841V59.738C62.9367 59.2015 63.15 58.6872 63.5293 58.3079C63.9086 57.9285 64.4229 57.7151 64.9594 57.7145H68.4048L62.9361 63.1841ZM63.2373 11.3091V16.5401H34.9103V11.3087H43.7439C43.9925 11.3087 44.231 11.21 44.4068 11.0342C44.5826 10.8583 44.6814 10.6199 44.6814 10.3712V7.70624C44.678 7.12726 44.789 6.5533 45.0082 6.0174C45.2274 5.48149 45.5503 4.9942 45.9585 4.58357C46.3667 4.17294 46.8521 3.84707 47.3867 3.6247C47.9212 3.40233 48.4945 3.28786 49.0735 3.28786C49.6525 3.28786 50.2258 3.40233 50.7604 3.6247C51.295 3.84707 51.7803 4.17294 52.1885 4.58357C52.5967 4.9942 52.9197 5.48149 53.1388 6.0174C53.358 6.5533 53.4691 7.12726 53.4656 7.70624V10.3712C53.4656 10.6199 53.5644 10.8583 53.7402 11.0342C53.916 11.21 54.1545 11.3087 54.4031 11.3087L63.2373 11.3091Z" fill="#173435"></path><path d="M64.1719 27.7686C64.4205 27.7686 64.659 27.6698 64.8348 27.494C65.0106 27.3182 65.1094 27.0797 65.1094 26.8311C65.1094 26.5824 65.0106 26.344 64.8348 26.1681C64.659 25.9923 64.4205 25.8936 64.1719 25.8936H63.0586C62.81 25.8936 62.5715 25.9923 62.3957 26.1681C62.2199 26.344 62.1211 26.5824 62.1211 26.8311C62.1211 27.0797 62.2199 27.3182 62.3957 27.494C62.5715 27.6698 62.81 27.7686 63.0586 27.7686H64.1719Z" fill="#173435"></path><path d="M59.5944 25.8936H43.2773C43.0287 25.8936 42.7902 25.9923 42.6144 26.1681C42.4386 26.344 42.3398 26.5824 42.3398 26.8311C42.3398 27.0797 42.4386 27.3182 42.6144 27.494C42.7902 27.6698 43.0287 27.7686 43.2773 27.7686H59.5944C59.843 27.7686 60.0815 27.6698 60.2573 27.494C60.4331 27.3182 60.5319 27.0797 60.5319 26.8311C60.5319 26.5824 60.4331 26.344 60.2573 26.1681C60.0815 25.9923 59.843 25.8936 59.5944 25.8936Z" fill="#173435"></path><path d="M33.9727 27.7686H39.7413C39.9899 27.7686 40.2284 27.6698 40.4042 27.494C40.58 27.3182 40.6788 27.0797 40.6788 26.8311C40.6788 26.5824 40.58 26.344 40.4042 26.1681C40.2284 25.9923 39.9899 25.8936 39.7413 25.8936H33.9727C33.724 25.8936 33.4856 25.9923 33.3097 26.1681C33.1339 26.344 33.0352 26.5824 33.0352 26.8311C33.0352 27.0797 33.1339 27.3182 33.3097 27.494C33.4856 27.6698 33.724 27.7686 33.9727 27.7686Z" fill="#173435"></path><path d="M60.1172 34.8137C60.1172 35.0624 60.216 35.3008 60.3918 35.4766C60.5676 35.6524 60.806 35.7512 61.0547 35.7512H64.1737C64.4224 35.7512 64.6608 35.6524 64.8367 35.4766C65.0125 35.3008 65.1112 35.0624 65.1112 34.8137C65.1112 34.5651 65.0125 34.3266 64.8367 34.1508C64.6608 33.975 64.4224 33.8762 64.1737 33.8762H61.0547C60.806 33.8762 60.5676 33.975 60.3918 34.1508C60.216 34.3266 60.1172 34.5651 60.1172 34.8137Z" fill="#173435"></path><path d="M58.6172 34.8137C58.6172 34.5651 58.5184 34.3266 58.3426 34.1508C58.1668 33.975 57.9283 33.8762 57.6797 33.8762H53.4297C53.181 33.8762 52.9426 33.975 52.7668 34.1508C52.591 34.3266 52.4922 34.5651 52.4922 34.8137C52.4922 35.0624 52.591 35.3008 52.7668 35.4766C52.9426 35.6524 53.181 35.7512 53.4297 35.7512H57.6797C57.9283 35.7512 58.1668 35.6524 58.3426 35.4766C58.5184 35.3008 58.6172 35.0624 58.6172 34.8137Z" fill="#173435"></path><path d="M33.9727 35.7512H50.4592C50.7079 35.7512 50.9463 35.6524 51.1222 35.4766C51.298 35.3008 51.3967 35.0624 51.3967 34.8137C51.3967 34.5651 51.298 34.3266 51.1222 34.1508C50.9463 33.975 50.7079 33.8762 50.4592 33.8762H33.9727C33.724 33.8762 33.4856 33.975 33.3097 34.1508C33.1339 34.3266 33.0352 34.5651 33.0352 34.8137C33.0352 35.0624 33.1339 35.3008 33.3097 35.4766C33.4856 35.6524 33.724 35.7512 33.9727 35.7512Z" fill="#173435"></path><path d="M64.1758 42.3562H57.5469C57.2982 42.3562 57.0598 42.455 56.884 42.6308C56.7082 42.8066 56.6094 43.0451 56.6094 43.2937C56.6094 43.5423 56.7082 43.7808 56.884 43.9566C57.0598 44.1324 57.2982 44.2312 57.5469 44.2312H64.1755C64.4241 44.2312 64.6626 44.1324 64.8384 43.9566C65.0142 43.7808 65.113 43.5423 65.113 43.2937C65.113 43.0451 65.0142 42.8066 64.8384 42.6308C64.6626 42.455 64.4241 42.3562 64.1755 42.3562H64.1758Z" fill="#173435"></path><path d="M33.9727 44.2312H54.1685C54.4171 44.2312 54.6556 44.1324 54.8314 43.9566C55.0072 43.7808 55.106 43.5423 55.106 43.2937C55.106 43.0451 55.0072 42.8066 54.8314 42.6308C54.6556 42.455 54.4171 42.3562 54.1685 42.3562H33.9727C33.724 42.3562 33.4856 42.455 33.3097 42.6308C33.1339 42.8066 33.0352 43.0451 33.0352 43.2937C33.0352 43.5423 33.1339 43.7808 33.3097 43.9566C33.4856 44.1324 33.724 44.2312 33.9727 44.2312Z" fill="#173435"></path><path d="M64.1725 50.1941H45.4727C45.224 50.1941 44.9856 50.2929 44.8097 50.4687C44.6339 50.6445 44.5352 50.883 44.5352 51.1316C44.5352 51.3802 44.6339 51.6187 44.8097 51.7945C44.9856 51.9703 45.224 52.0691 45.4727 52.0691H64.1725C64.4211 52.0691 64.6596 51.9703 64.8354 51.7945C65.0112 51.6187 65.11 51.3802 65.11 51.1316C65.11 50.883 65.0112 50.6445 64.8354 50.4687C64.6596 50.2929 64.4211 50.1941 64.1725 50.1941Z" fill="#173435"></path><path d="M37.0078 50.1941C36.7592 50.1941 36.5207 50.2929 36.3449 50.4687C36.1691 50.6445 36.0703 50.883 36.0703 51.1316C36.0703 51.3802 36.1691 51.6187 36.3449 51.7945C36.5207 51.9703 36.7592 52.0691 37.0078 52.0691H42.098C42.3466 52.0691 42.5851 51.9703 42.7609 51.7945C42.9367 51.6187 43.0355 51.3802 43.0355 51.1316C43.0355 50.883 42.9367 50.6445 42.7609 50.4687C42.5851 50.2929 42.3466 50.1941 42.098 50.1941H37.0078Z" fill="#173435"></path><path d="M25.298 44.3985C22.754 43.4596 20.0277 43.1201 17.3311 43.4065C14.6346 43.6928 12.0404 44.5973 9.75035 46.0495C7.46028 47.5018 5.53604 49.4627 4.12725 51.7798C2.71847 54.0968 1.8631 56.7076 1.62767 59.4091C1.58454 59.9135 1.56251 60.427 1.56251 60.9355C1.55927 63.6523 2.18555 66.3329 3.39222 68.7671C4.5989 71.2012 6.35315 73.3227 8.51736 74.965C11.5796 77.3086 15.3314 78.573 19.1875 78.561C23.3241 78.5604 27.3287 77.1051 30.5005 74.4498C33.6724 71.7945 35.8094 68.1084 36.5377 64.0365C37.266 59.9645 36.5391 55.7662 34.4843 52.1761C32.4295 48.586 29.1776 45.8328 25.2977 44.3985H25.298ZM19.1875 76.686C15.7419 76.697 12.3894 75.5674 9.65314 73.4733C7.71868 72.0059 6.15067 70.1101 5.07222 67.9347C3.99377 65.7593 3.43422 63.3635 3.43751 60.9355C3.43751 60.4803 3.4572 60.0208 3.49579 59.5694C3.76087 56.5239 4.90646 53.6214 6.79284 51.2158C8.67922 48.8103 11.2249 47.0056 14.1193 46.022C17.0137 45.0384 20.1318 44.9183 23.0933 45.6764C26.0548 46.4345 28.7317 48.038 30.7975 50.2914C32.8633 52.5448 34.2287 55.3506 34.7272 58.3667C35.2257 61.3828 34.8357 64.4787 33.6049 67.277C32.3741 70.0752 30.3555 72.4548 27.7955 74.1255C25.2354 75.7963 22.2445 76.6859 19.1875 76.686Z" fill="#5CD8DF"></path><path d="M23.0241 49.3671C22.1189 49.6086 21.2594 49.997 20.4801 50.517C20.0696 50.7832 19.6401 51.0191 19.1952 51.2227C19.1044 51.171 19.0063 51.1143 18.903 51.0546C17.803 50.4195 16.1407 49.4593 14.666 49.2637C11.6457 48.8634 9.2171 50.1405 8.16741 52.6801C7.10663 55.246 7.73366 58.3691 9.59507 59.7905C9.7618 59.918 9.93876 60.0315 10.1241 60.1299C11.1698 60.6834 11.8555 61.0877 12.0444 61.3929C12.179 61.6102 12.1498 62.0377 12.0766 62.9073C12.0626 63.0754 12.0474 63.2552 12.0326 63.4487C11.9232 64.8751 11.7615 69.7299 14.2576 72.308C14.4523 72.4966 14.6891 72.6361 14.9483 72.7152C15.1324 72.7786 15.3256 72.8109 15.5202 72.8109C15.7712 72.8137 16.0198 72.7615 16.2485 72.658C16.4771 72.5544 16.6803 72.4021 16.8438 72.2116C17.0073 72.0211 17.1271 71.7971 17.1947 71.5554C17.2624 71.3137 17.2762 71.0601 17.2354 70.8124C17.1963 70.3851 16.7648 65.0915 18.9743 62.402C19.0059 62.3697 19.0436 62.3441 19.0853 62.3267C19.1269 62.3093 19.1716 62.3004 19.2168 62.3005C19.2619 62.3006 19.3066 62.3098 19.3481 62.3275C19.3897 62.3451 19.4272 62.3709 19.4587 62.4034C21.6305 65.1129 21.2015 70.3885 21.1629 70.8127C21.1144 71.1093 21.1442 71.4135 21.2494 71.695C21.3546 71.9765 21.5314 72.2257 21.7625 72.4179C21.9936 72.6101 22.2708 72.7387 22.5668 72.7908C22.8628 72.843 23.1672 72.8169 23.4501 72.7152C23.7094 72.6362 23.9462 72.4965 24.1408 72.3079C26.6366 69.7298 26.4748 64.8751 26.3657 63.4485C26.351 63.2559 26.3358 63.0768 26.3218 62.9096C26.2488 62.0396 26.2196 61.6116 26.354 61.394C26.5427 61.0891 27.229 60.6838 28.2749 60.1284C28.461 60.0292 28.6382 59.9142 28.8046 59.7846C30.7555 58.2677 31.3165 54.6352 30.0051 52.0112C29.4038 50.809 27.5198 48.1416 23.0241 49.3671ZM27.6546 58.3046C27.5735 58.3679 27.4871 58.424 27.3963 58.4724C24.446 60.0385 24.2469 60.6021 24.4538 63.0662C24.4676 63.229 24.4823 63.4034 24.4966 63.591C24.679 65.976 24.383 69.0213 23.0532 70.7062C23.1494 69.3541 23.3326 64.2374 20.9221 61.2299C20.7173 60.9778 20.4592 60.7743 20.1663 60.6339C19.8735 60.4935 19.5531 60.4197 19.2284 60.4179C18.9036 60.4161 18.5824 60.4863 18.288 60.6234C17.9936 60.7605 17.7333 60.9612 17.5257 61.211C15.0654 64.2066 15.2483 69.349 15.3452 70.7068C14.0154 69.0216 13.7202 65.9768 13.9021 63.5916C13.9166 63.4032 13.9313 63.228 13.9449 63.0645C14.1524 60.5991 13.9532 60.0355 11.0012 58.4727C10.9071 58.4226 10.8172 58.3649 10.7326 58.3001C9.55444 57.4004 9.17304 55.1549 9.90007 53.3965C10.3207 52.3793 11.4669 50.7309 14.4194 51.1226C15.5252 51.2691 17.0527 52.1513 17.9654 52.6784C18.2779 52.859 18.548 53.0149 18.759 53.1198C19.7746 53.6251 21.3071 54.2624 22.874 53.9557C23.1161 53.9061 23.3288 53.7629 23.4659 53.5572C23.603 53.3516 23.6533 53.1001 23.6059 52.8576C23.5585 52.615 23.4173 52.401 23.2129 52.262C23.0086 52.1231 22.7576 52.0704 22.5146 52.1155C22.1679 52.1781 21.8127 52.1766 21.4665 52.1113L21.468 52.1104C22.0935 51.6857 22.7863 51.3698 23.5171 51.1762C26.4077 50.3879 27.729 51.6518 28.328 52.8505C29.2405 54.6759 28.9129 57.327 27.6546 58.3054V58.3046Z" fill="#5CD8DF"></path></svg>