<svg xmlns:xlink="http://www.w3.org/1999/xlink" xmlns="http://www.w3.org/2000/svg" width="80" height="80" viewBox="0 0 80 80" fill="none"><rect x="5" y="23" width="57" height="57" rx="28.5" fill="#E1F8FA"></rect><path d="M47.5325 34.2885C48.8477 33.473 49.9836 32.7688 52.2169 32.1599C54.0831 31.6511 55.8048 31.5016 57.3463 31.6911C55.1339 30.3683 52.2284 30.1179 48.8525 31.0383C46.6191 31.6477 45.4833 32.3508 44.168 33.1668C43.3329 33.7036 42.4668 34.1906 41.5742 34.625C42.8931 35.1875 44.0692 35.5238 45.143 35.6466C45.9626 35.2358 46.7602 34.7825 47.5325 34.2885Z" fill="#E1F8FA"></path><path d="M50.2047 68.0505C49.7442 62.6167 48.3428 58.4045 46.0398 55.5309C45.7288 55.1446 45.3345 54.8335 44.8864 54.6208C44.4382 54.4081 43.9479 54.2994 43.4519 54.3028C43.1865 54.3031 42.9221 54.3346 42.6641 54.3966C42.6677 54.4011 42.6717 54.4053 42.6755 54.4098C44.9784 57.2834 46.3797 61.4956 46.8403 66.9294C47.0508 69.3505 47.0531 71.7852 46.8473 74.2067C46.8455 74.2253 46.8428 74.2437 46.8392 74.262C46.8032 74.4384 46.8156 74.6212 46.875 74.7911C46.9345 74.961 47.0388 75.1116 47.1768 75.2271C47.3149 75.3425 47.4817 75.4185 47.6594 75.4469C47.8371 75.4753 48.0192 75.4551 48.1864 75.3884C48.3368 75.3481 48.4787 75.2809 48.6052 75.19C49.2997 74.4576 49.8875 73.6309 50.3511 72.7344C50.3837 71.1716 50.3349 69.6082 50.2047 68.0505Z" fill="#E1F8FA"></path><path d="M33.2587 74.2069C33.2573 74.1943 33.2531 74.1527 33.2469 74.0857C31.0375 70.1105 30.5395 64.2771 30.8964 59.6085C30.9277 59.206 30.9589 58.8319 30.9881 58.4835C31.177 56.238 31.2909 54.8827 30.5314 53.6554C29.8005 52.4744 28.3106 51.546 25.4503 50.0318C23.8734 49.197 22.6691 47.522 22.0597 45.3155C21.4612 43.0689 21.5125 40.6985 22.2078 38.4799C22.9031 36.3043 24.1822 34.5526 25.9066 33.4143C27.9206 32.0851 30.4658 31.6132 33.4719 32.012C33.578 32.026 33.6855 32.0432 33.7936 32.0624C32.5392 31.497 31.26 31.0432 30.1075 30.8905C27.1013 30.4918 24.5561 30.9637 22.5422 32.293C20.8178 33.4312 19.5388 35.1837 18.8433 37.3585C18.1481 39.5771 18.0967 41.9475 18.6953 44.1941C19.3047 46.4007 20.5088 48.0757 22.0859 48.9104C24.9463 50.4246 26.4363 51.3532 27.1672 52.534C27.9267 53.761 27.8127 55.1163 27.6239 57.3621C27.5944 57.7115 27.563 58.0855 27.5322 58.488C27.1005 64.1341 27.9166 71.4871 31.5019 75.1912C31.6283 75.2813 31.7698 75.3482 31.9197 75.3887C32.0869 75.4554 32.269 75.4757 32.4468 75.4473C32.6246 75.419 32.7914 75.343 32.9295 75.2276C33.0676 75.1121 33.1719 74.9614 33.2313 74.7914C33.2907 74.6215 33.303 74.4386 33.2669 74.2623C33.2633 74.2438 33.2606 74.2254 33.2587 74.2069Z" fill="#E1F8FA"></path><path d="M48.3206 29.1692C45.8377 29.8461 44.5381 30.6519 43.162 31.5052C42.1111 32.1889 41.0028 32.78 39.8495 33.2719C39.8302 33.28 39.8111 33.2884 39.7922 33.2973C39.4797 33.1255 39.1047 32.9091 38.6947 32.6723C36.4158 31.3561 32.9714 29.367 30.0281 28.9767C23.6072 28.1247 18.6992 30.9828 16.8972 36.6208C15.1724 42.0164 16.9933 48.113 20.956 50.2109C23.527 51.5722 24.9313 52.4225 25.47 53.293C25.9363 54.0464 25.8763 55.0298 25.6949 57.1828C25.6649 57.5392 25.6324 57.9212 25.6011 58.3323C25.3764 61.2698 25.0344 71.2584 30.061 76.452C30.4589 76.8596 30.9769 77.1293 31.539 77.2215C32.1012 77.3138 32.6781 77.2239 33.1855 76.9649C33.6929 76.7059 34.1042 76.2914 34.3592 75.782C34.6143 75.2726 34.6998 74.695 34.6031 74.1336C34.4114 71.7797 34.4187 69.4139 34.625 67.0613C34.9361 63.5161 35.8706 58.6041 38.5563 55.335C38.7222 55.1392 38.9291 54.982 39.1623 54.8747C39.3955 54.7673 39.6494 54.7124 39.9061 54.7136C40.1628 54.7149 40.4161 54.7724 40.6482 54.882C40.8804 54.9917 41.0857 55.1508 41.2497 55.3483C43.8866 58.6383 44.8013 63.5467 45.1044 67.0852C45.3049 69.4302 45.3101 71.788 45.12 74.1339C45.0524 74.5125 45.0692 74.9014 45.1693 75.2727C45.2695 75.644 45.4504 75.9886 45.6992 76.2819C45.948 76.5751 46.2585 76.8098 46.6086 76.9691C46.9586 77.1284 47.3395 77.2083 47.7241 77.2033C48.0235 77.2033 48.3209 77.1534 48.6039 77.0558C48.999 76.9399 49.3614 76.733 49.662 76.4517C54.6889 71.2578 54.3467 61.2694 54.1222 58.3317C54.091 57.9227 54.0597 57.5423 54.0285 57.1873C53.8475 55.0334 53.7872 54.0495 54.2535 53.2967C54.7916 52.4275 56.1958 51.5753 58.7677 50.2103C60.8738 49.0925 62.4061 46.8209 63.0827 43.8141C63.7156 40.9615 63.4964 37.9859 62.4522 35.2569C61.4414 32.7047 59.7381 30.7656 57.5264 29.6497C54.9742 28.3614 51.8769 28.1997 48.3206 29.1692ZM60.7095 35.9469C61.6177 38.3249 61.8071 40.9173 61.2541 43.402C60.7072 45.8311 59.4811 47.7089 57.8892 48.5538C54.898 50.1416 53.433 51.0606 52.6599 52.3094C51.8474 53.6211 51.9656 55.0227 52.1606 57.3445C52.1902 57.6952 52.2217 58.0708 52.2527 58.4747C52.6839 64.1153 51.8788 71.4502 48.327 75.135C48.2225 75.1979 48.1106 75.2477 47.9939 75.2831C47.8678 75.3359 47.7296 75.3532 47.5944 75.3332C47.4591 75.3132 47.3319 75.2565 47.2265 75.1694C47.1211 75.0823 47.0416 74.9681 46.9964 74.839C46.9513 74.7099 46.9422 74.571 46.9703 74.4372C46.9752 74.4116 46.9791 74.3858 46.9817 74.36C47.0378 73.8234 48.2914 61.1363 42.7124 54.1753C42.3738 53.7601 41.9477 53.4249 41.4644 53.1937C40.9812 52.9625 40.4528 52.8411 39.9171 52.8381C39.3814 52.8351 38.8516 52.9507 38.3658 53.1765C37.88 53.4022 37.4502 53.7327 37.107 54.1441C31.417 61.0702 32.6844 73.8211 32.7411 74.3605C32.7436 74.3861 32.7475 74.4116 32.7524 74.437C32.7805 74.5709 32.7714 74.7098 32.7262 74.8389C32.681 74.968 32.6014 75.0823 32.496 75.1693C32.3906 75.2564 32.2633 75.313 32.128 75.333C31.9928 75.3531 31.8546 75.3357 31.7285 75.2828C31.6118 75.2474 31.5 75.1977 31.3956 75.1348C27.8442 71.4503 27.0389 64.1153 27.47 58.4745C27.5013 58.0683 27.5325 57.6914 27.5625 57.3392C27.7577 55.0181 27.875 53.6172 27.0636 52.3055C26.2892 51.0545 24.8239 50.1369 21.8325 48.5531C18.6883 46.8886 17.2458 41.6853 18.6822 37.1909C19.4041 34.933 21.9288 29.7938 29.7808 30.8347C32.3552 31.1761 35.6055 33.0534 37.7563 34.2953C38.4095 34.6727 38.9738 34.9984 39.395 35.208C41.4286 36.2192 44.4825 37.4948 47.5147 36.9038C47.7587 36.8561 47.9739 36.7134 48.1127 36.5072C48.2516 36.3009 48.3028 36.0479 48.2552 35.8039C48.2075 35.5599 48.0649 35.3448 47.8586 35.2059C47.6523 35.067 47.3994 35.0158 47.1553 35.0634C45.6888 35.35 44.0277 35.1166 42.0197 34.3291C42.8538 33.9016 43.5292 33.4828 44.15 33.0978C45.4614 32.2853 46.5938 31.5822 48.8136 30.9773C54.5088 29.4264 58.8444 31.2369 60.7095 35.9469Z" fill="#173435"></path><path d="M45.2448 9.23975L46.1619 3.89256C46.1916 3.72012 46.1723 3.54285 46.1064 3.38078C46.0405 3.21871 45.9306 3.07831 45.7891 2.97546C45.6475 2.87262 45.48 2.81143 45.3055 2.79882C45.131 2.78622 44.9565 2.82269 44.8016 2.90412L39.9995 5.42881L35.1973 2.90412C35.0424 2.82269 34.8679 2.78622 34.6934 2.79882C34.5189 2.81143 34.3514 2.87262 34.2098 2.97546C34.0683 3.07831 33.9584 3.21871 33.8925 3.38078C33.8266 3.54285 33.8073 3.72012 33.837 3.89256L34.7541 9.23975L30.869 13.0268C30.7437 13.1489 30.6551 13.3036 30.6132 13.4735C30.5713 13.6433 30.5778 13.8215 30.6319 13.9879C30.686 14.1543 30.7855 14.3022 30.9193 14.4149C31.0531 14.5277 31.2157 14.6007 31.3888 14.6258L36.7577 15.4062L39.1587 20.2713C39.2361 20.4282 39.3558 20.5604 39.5044 20.6527C39.653 20.7451 39.8245 20.7941 39.9995 20.7941C40.1744 20.7941 40.3459 20.7451 40.4945 20.6527C40.6431 20.5604 40.7628 20.4282 40.8402 20.2713L43.2412 15.4062L48.6101 14.626C48.7832 14.6009 48.9459 14.5278 49.0796 14.4151C49.2134 14.3023 49.313 14.1544 49.367 13.9881C49.4211 13.8217 49.4276 13.6435 49.3857 13.4736C49.3438 13.3038 49.2552 13.1491 49.1299 13.0269L45.2448 9.23975ZM42.4838 13.6213C42.3334 13.6432 42.1905 13.7013 42.0676 13.7906C41.9446 13.8799 41.8452 13.9978 41.7779 14.1341L39.9995 17.7379L38.221 14.1341C38.1537 13.9978 38.0543 13.8799 37.9313 13.7906C37.8084 13.7013 37.6655 13.6432 37.5151 13.6213L33.5381 13.0432L36.4159 10.238C36.5247 10.132 36.6061 10.001 36.6531 9.85647C36.7001 9.71193 36.7112 9.55814 36.6856 9.40834L36.006 5.44756L39.5632 7.31756C39.6978 7.38822 39.8475 7.42514 39.9995 7.42514C40.1514 7.42514 40.3011 7.38822 40.4357 7.31756L43.9929 5.44756L43.3134 9.40834C43.2877 9.55814 43.2988 9.71193 43.3458 9.85647C43.3928 10.001 43.4742 10.132 43.583 10.238L46.4609 13.0432L42.4838 13.6213Z" fill="#5CD8DF"></path><path d="M22.9282 17.8153L23.8451 12.4688C23.8747 12.2964 23.8556 12.1192 23.7898 11.9572C23.724 11.7951 23.6141 11.6548 23.4727 11.5519C23.3313 11.449 23.1639 11.3877 22.9895 11.3749C22.8151 11.3622 22.6406 11.3985 22.4857 11.4797L17.6829 14.0044L12.8809 11.4798C12.726 11.3984 12.5514 11.3619 12.3768 11.3745C12.2023 11.3871 12.0348 11.4484 11.8932 11.5513C11.7516 11.6542 11.6417 11.7947 11.5759 11.9568C11.51 12.1189 11.4909 12.2963 11.5206 12.4688L12.4376 17.8161L8.55261 21.6023C8.42735 21.7245 8.33875 21.8792 8.29684 22.049C8.25492 22.2189 8.26137 22.397 8.31544 22.5634C8.3695 22.7298 8.46904 22.8777 8.6028 22.9904C8.73655 23.1032 8.89918 23.1763 9.0723 23.2014L14.4412 23.9814L16.8421 28.8467C16.9195 29.0036 17.0393 29.1358 17.1879 29.2281C17.3365 29.3205 17.508 29.3695 17.6829 29.3695C17.8579 29.3695 18.0294 29.3205 18.1779 29.2281C18.3265 29.1358 18.4463 29.0036 18.5237 28.8467L20.9246 23.9814L26.2937 23.2014C26.4668 23.1763 26.6294 23.1032 26.7632 22.9904C26.897 22.8777 26.9965 22.7298 27.0506 22.5634C27.1046 22.397 27.1111 22.2189 27.0692 22.049C27.0272 21.8792 26.9387 21.7245 26.8134 21.6023L22.9282 17.8153ZM20.1673 22.1969C20.0169 22.2187 19.874 22.2768 19.751 22.3662C19.6281 22.4555 19.5286 22.5734 19.4614 22.7097L17.6829 26.3134L15.9045 22.7097C15.8372 22.5734 15.7378 22.4555 15.6148 22.3662C15.4918 22.2768 15.349 22.2187 15.1985 22.1969L11.2217 21.6188L14.0995 18.8136C14.2083 18.7075 14.2897 18.5766 14.3366 18.432C14.3836 18.2875 14.3947 18.1337 14.369 17.9839L13.6896 14.0234L17.2467 15.8933C17.3812 15.964 17.5309 16.001 17.6829 16.001C17.8349 16.001 17.9846 15.964 18.1192 15.8933L21.6764 14.0234L20.9968 17.9844C20.9712 18.1342 20.9823 18.288 21.0293 18.4325C21.0763 18.577 21.1577 18.708 21.2665 18.8141L24.1443 21.6192L20.1673 22.1969Z" fill="#5CD8DF"></path><path d="M67.5656 17.8152L68.4826 12.4686C68.5122 12.2962 68.4929 12.119 68.4269 11.957C68.361 11.7949 68.2511 11.6546 68.1096 11.5518C67.968 11.449 67.8006 11.3878 67.6261 11.3752C67.4516 11.3626 67.2771 11.3991 67.1223 11.4805L62.3203 14.0043L57.5175 11.4796C57.3626 11.3983 57.1881 11.3621 57.0137 11.3748C56.8392 11.3876 56.6719 11.4488 56.5305 11.5517C56.3891 11.6546 56.2792 11.795 56.2134 11.957C56.1476 12.1191 56.1285 12.2963 56.1581 12.4686L57.0754 17.816L53.1893 21.6022C53.0641 21.7243 52.9755 21.8791 52.9336 22.0489C52.8916 22.2187 52.8981 22.3969 52.9522 22.5633C53.0062 22.7297 53.1058 22.8776 53.2395 22.9903C53.3733 23.1031 53.5359 23.1761 53.709 23.2013L59.0781 23.9813L61.479 28.8466C61.5564 29.0035 61.6762 29.1356 61.8248 29.228C61.9734 29.3204 62.1448 29.3694 62.3198 29.3694C62.4948 29.3694 62.6662 29.3204 62.8148 29.228C62.9634 29.1356 63.0832 29.0035 63.1606 28.8466L65.5615 23.9813L70.9304 23.2013C71.1035 23.1761 71.2662 23.1031 71.3999 22.9903C71.5337 22.8776 71.6332 22.7297 71.6873 22.5633C71.7414 22.3969 71.7478 22.2187 71.7059 22.0489C71.664 21.8791 71.5754 21.7243 71.4501 21.6022L67.5656 17.8152ZM64.8046 22.1968C64.6542 22.2186 64.5114 22.2767 64.3884 22.366C64.2654 22.4554 64.166 22.5733 64.0987 22.7096L62.3203 26.3133L60.5418 22.7096C60.4746 22.5733 60.3751 22.4554 60.2522 22.366C60.1292 22.2767 59.9863 22.2186 59.8359 22.1968L55.8589 21.6186L58.7362 18.8138C58.845 18.7077 58.9265 18.5768 58.9734 18.4322C59.0204 18.2877 59.0316 18.1339 59.0059 17.9841L58.3268 14.0233L61.884 15.8933C62.0186 15.964 62.1683 16.001 62.3203 16.001C62.4723 16.001 62.622 15.964 62.7565 15.8933L66.3143 14.0233L65.6342 17.9843C65.6085 18.134 65.6196 18.2878 65.6666 18.4324C65.7135 18.5769 65.7949 18.7078 65.9037 18.8139L68.7815 21.6191L64.8046 22.1968Z" fill="#5CD8DF"></path></svg>